<?xml version="1.0" encoding="utf-8"?>
<!-- Generator: Adobe Illustrator 23.0.1, SVG Export Plug-In . SVG Version: 6.00 Build 0)  -->
<svg version="1.1" id="OBJECTS" xmlns="http://www.w3.org/2000/svg" xmlns:xlink="http://www.w3.org/1999/xlink" x="0px" y="0px"
	 viewBox="0 0 500 500" style="enable-background:new 0 0 500 500;" xml:space="preserve">
<style type="text/css">
	.st0{fill:#FF0000;}
</style>
<g>
	<g>
		<path class="st0" d="M403.6,209.2H395c-0.5,0-1-0.3-1.2-0.7l-46.2-87.2c-0.2-0.4-0.2-0.9,0-1.3c0.2-0.4,0.7-0.7,1.2-0.7h42.1
			c0.5,0,1,0.3,1.2,0.7l23.3,45.1l26.8-35.3h-13l-9,11.2c-0.2,0.3-0.6,0.5-1,0.5c-0.4,0-0.8-0.1-1-0.4l-6.3-6.3
			c-0.5-0.5-0.5-1.3-0.1-1.8l10.2-13.3c0.3-0.3,0.7-0.5,1.1-0.5h37.6c0.5,0,1,0.3,1.2,0.7c0.2,0.5,0.2,1-0.1,1.4l-45.3,63.5
			c-0.3,0.4-0.7,0.6-1.2,0.6c-0.5,0-0.9-0.3-1.1-0.7l-28.8-54.9h-21l40.5,77.3c0.2,0.4,0.2,0.9,0,1.3
			C404.6,208.9,404.1,209.2,403.6,209.2z M395.8,206.4h5.5l-40.5-77.3c-0.2-0.4-0.2-0.9,0-1.3c0.2-0.4,0.7-0.7,1.2-0.7h24.1
			c0.5,0,1,0.3,1.2,0.7l28.2,53.7L458,122h-34.3l-9.1,11.8l4.3,4.3l8.5-10.6c0.3-0.3,0.7-0.5,1.1-0.5H445c0.5,0,1,0.3,1.2,0.8
			c0.2,0.5,0.2,1-0.1,1.4l-29.8,39.2c-0.3,0.4-0.7,0.6-1.2,0.5c-0.5,0-0.9-0.3-1.1-0.7L390.1,122h-39L395.8,206.4z"/>
	</g>
</g>
</svg>
