<svg id="OBJECTS" xmlns="http://www.w3.org/2000/svg" viewBox="0 0 500 500"><defs><style>.cls-1{fill:#fff;}</style></defs><title>logo</title><path class="cls-1" d="M403.64,209.15H395a1.36,1.36,0,0,1-1.21-.72l-46.24-87.16a1.37,1.37,0,0,1,1.21-2h42.1a1.39,1.39,0,0,1,1.22.74l23.31,45.11,26.81-35.28H429.17l-9,11.25a1.36,1.36,0,0,1-1,.51,1.39,1.39,0,0,1-1-.4l-6.27-6.27a1.37,1.37,0,0,1-.12-1.8l10.19-13.32a1.37,1.37,0,0,1,1.09-.54h37.62a1.36,1.36,0,0,1,1.21.74,1.35,1.35,0,0,1-.1,1.42l-45.27,63.49a1.34,1.34,0,0,1-1.2.57,1.36,1.36,0,0,1-1.12-.73l-28.81-54.92h-21l40.49,77.32a1.36,1.36,0,0,1-1.21,2Zm-7.8-2.73h5.54L360.89,129.1a1.37,1.37,0,0,1,1.21-2h24.09a1.38,1.38,0,0,1,1.21.73l28.16,53.68L458,122H423.7l-9.05,11.84,4.34,4.35,8.45-10.57a1.39,1.39,0,0,1,1.07-.51H445a1.36,1.36,0,0,1,1.09,2.19l-29.78,39.19a1.36,1.36,0,0,1-1.21.54,1.37,1.37,0,0,1-1.1-.74L390.05,122h-39Z"/></svg>